<svg width="24" height="24" viewBox="0 0 24 24" fill="none" xmlns="http://www.w3.org/2000/svg">
<path d="M6.61538 14C6.18696 14 5.77608 13.842 5.47314 13.5607C5.17019 13.2794 5 12.8978 5 12.5C5 12.1022 5.17019 11.7206 5.47314 11.4393C5.77608 11.158 6.18696 11 6.61538 11C7.04381 11 7.45469 11.158 7.75763 11.4393C8.06058 11.7206 8.23077 12.1022 8.23077 12.5C8.23077 12.8978 8.06058 13.2794 7.75763 13.5607C7.45469 13.842 7.04381 14 6.61538 14ZM12 14C11.5716 14 11.1607 13.842 10.8578 13.5607C10.5548 13.2794 10.3846 12.8978 10.3846 12.5C10.3846 12.1022 10.5548 11.7206 10.8578 11.4393C11.1607 11.158 11.5716 11 12 11C12.4284 11 12.8393 11.158 13.1423 11.4393C13.4452 11.7206 13.6154 12.1022 13.6154 12.5C13.6154 12.8978 13.4452 13.2794 13.1423 13.5607C12.8393 13.842 12.4284 14 12 14ZM17.3846 14C16.9562 14 16.5453 13.842 16.2424 13.5607C15.9394 13.2794 15.7692 12.8978 15.7692 12.5C15.7692 12.1022 15.9394 11.7206 16.2424 11.4393C16.5453 11.158 16.9562 11 17.3846 11C17.813 11 18.2239 11.158 18.5269 11.4393C18.8298 11.7206 19 12.1022 19 12.5C19 12.8978 18.8298 13.2794 18.5269 13.5607C18.2239 13.842 17.813 14 17.3846 14Z" fill="black" fill-opacity="0.8"/>
</svg>
