<svg width="16" height="16" viewBox="0 0 16 16" fill="none" xmlns="http://www.w3.org/2000/svg">
<path d="M10.25 11.5C10.4489 11.5 10.6397 11.579 10.7803 11.7197C10.921 11.8603 11 12.0511 11 12.25C11 12.4489 10.921 12.6397 10.7803 12.7803C10.6397 12.921 10.4489 13 10.25 13H5.75C5.55109 13 5.36032 12.921 5.21967 12.7803C5.07902 12.6397 5 12.4489 5 12.25C5 12.0511 5.07902 11.8603 5.21967 11.7197C5.36032 11.579 5.55109 11.5 5.75 11.5H10.25ZM12.25 7.25C12.4489 7.25 12.6397 7.32902 12.7803 7.46967C12.921 7.61032 13 7.80109 13 8C13 8.19891 12.921 8.38968 12.7803 8.53033C12.6397 8.67098 12.4489 8.75 12.25 8.75H3.75C3.55109 8.75 3.36032 8.67098 3.21967 8.53033C3.07902 8.38968 3 8.19891 3 8C3 7.80109 3.07902 7.61032 3.21967 7.46967C3.36032 7.32902 3.55109 7.25 3.75 7.25H12.25ZM14.25 3C14.4489 3 14.6397 3.07902 14.7803 3.21967C14.921 3.36032 15 3.55109 15 3.75C15 3.94891 14.921 4.13968 14.7803 4.28033C14.6397 4.42098 14.4489 4.5 14.25 4.5H1.75C1.55109 4.5 1.36032 4.42098 1.21967 4.28033C1.07902 4.13968 1 3.94891 1 3.75C1 3.55109 1.07902 3.36032 1.21967 3.21967C1.36032 3.07902 1.55109 3 1.75 3H14.25Z" fill="black"/>
</svg>
